# xmcd
#
# Track frame offsets:
#	150
#	44886
#	74777
#	104476
#	150916
#	197654
#	230746
#	277780
#	302320
#
# Disc length: 4424 seconds
#
# Revision: 0
# Processed by: cddbd v1.5.2PL0 Copyright (c) Steve Scherf et al.
# Submitted via: audiograbber 1.83.01
#
DISCID=7a114609
DTITLE=Grateful Dead - 94-03-28 Nassau Veterans Memorial Coliseum, Uniondale NY
DYEAR=1900
DGENRE=
TTITLE0=He's Gone
TTITLE1=That Would Be Something
TTITLE2=Going Down The Road Feeling Bad
TTITLE3=Drums
TTITLE4=Space
TTITLE5=All Along The Watchtower
TTITLE6=The Days Between
TTITLE7=Turn On Your Lovelight
TTITLE8=Brokedown Place
EXTD=
EXTT0=
EXTT1=
EXTT2=
EXTT3=
EXTT4=
EXTT5=
EXTT6=
EXTT7=
EXTT8=
PLAYORDER=
